<svg id="Layer_4" data-name="Layer 4" xmlns="http://www.w3.org/2000/svg" xmlns:xlink="http://www.w3.org/1999/xlink" viewBox="0 0 32 32"><defs><style>.cls-1{fill:url(#linear-gradient);}.cls-2{fill:#fcf9fe;}</style><linearGradient id="linear-gradient" x1="25.94" y1="26.42" x2="7.38" y2="6.97" gradientUnits="userSpaceOnUse"><stop offset="0.04" stop-color="#6e11f4"/><stop offset="0.77" stop-color="#8912fc"/></linearGradient></defs><path class="cls-1" d="M30.54,15.26v1.48a2.61,2.61,0,0,0-2.32,1.82,12.37,12.37,0,0,0-.89,5.69,2.93,2.93,0,0,1-2.69,3.33H7.36a2.93,2.93,0,0,1-2.69-3.33,12.37,12.37,0,0,0-.89-5.69,2.61,2.61,0,0,0-2.32-1.82V15.26a2.61,2.61,0,0,0,2.32-1.82,12.37,12.37,0,0,0,.89-5.69A2.93,2.93,0,0,1,7.36,4.42H24.64a2.93,2.93,0,0,1,2.69,3.33,12.37,12.37,0,0,0,.89,5.69A2.61,2.61,0,0,0,30.54,15.26Z"/><path class="cls-2" d="M12,22.21V9.79h4.66a5.75,5.75,0,0,1,2.28.38,3,3,0,0,1,1.35,1.16A3.1,3.1,0,0,1,20.76,13a2.81,2.81,0,0,1-.44,1.5A3,3,0,0,1,19,15.6a3.23,3.23,0,0,1,1.73,1.13,3,3,0,0,1,.61,1.88A3.7,3.7,0,0,1,21,20.23a3.2,3.2,0,0,1-.91,1.16,3.88,3.88,0,0,1-1.36.61,8.27,8.27,0,0,1-2,.21ZM13.62,15h2.69a5.8,5.8,0,0,0,1.57-.15,1.76,1.76,0,0,0,.94-.61,1.81,1.81,0,0,0,.32-1.09,2,2,0,0,0-.3-1.09,1.53,1.53,0,0,0-.85-.64,6.87,6.87,0,0,0-1.89-.17H13.62Zm0,5.73h3.09a8.93,8.93,0,0,0,1.12,0,2.86,2.86,0,0,0,1-.34,1.84,1.84,0,0,0,.63-.69,2.26,2.26,0,0,0,.24-1.05,2.05,2.05,0,0,0-.35-1.21,1.92,1.92,0,0,0-1-.72,6.07,6.07,0,0,0-1.82-.21H13.62Z"/></svg>